<svg xmlns="http://www.w3.org/2000/svg" width="16" height="16"><path id="cart-icon.svg" d="M1175.99 64h-14a2.2 2.2 0 0 0-1 1v3a6.047 6.047 0 0 0 1 1v10a4.288 4.288 0 0 0 1 1h12a3.263 3.263 0 0 0 1-1V69a6.055 6.055 0 0 0 1-1v-3a2.683 2.683 0 0 0-1-1zm-1 15h-12V69h12v10zm1-11h-14v-3h14v3zm-6 4a1.059 1.059 0 0 1 1 1 1.208 1.208 0 0 1-1 1h-2a1.023 1.023 0 0 1-1-1 1.387 1.387 0 0 1 1-1h2zm0-1h-2a2.016 2.016 0 0 0-2 2 1.908 1.908 0 0 0 2 2h2a1.943 1.943 0 0 0 2-2 1.969 1.969 0 0 0-2-2z" transform="translate(-1161 -64)" fill="#f15b4c" fill-rule="evenodd"/></svg>